<?xml version="1.0" standalone="no"?>
<!DOCTYPE svg PUBLIC "-//W3C//DTD SVG 20010904//EN"
		"http://www.w3.org/TR/2001/REC-SVG-20010904/DTD/svg10.dtd">
<svg version="1.0" xmlns="http://www.w3.org/2000/svg"
	 width="1197.000000pt" height="499.000000pt" viewBox="0 0 1197.000000 499.000000"
	 preserveAspectRatio="xMidYMid meet">

	<g transform="translate(0.000000,499.000000) scale(0.100000,-0.100000)"
	   fill="#000000" stroke="none">
		<path d="M1029 3927 c-67 -45 -75 -139 -18 -196 106 -106 277 28 199 156 -38
63 -120 81 -181 40z"/>
		<path d="M7994 3761 c-87 -50 -154 -141 -261 -356 -39 -77 -83 -172 -97 -211
-24 -65 -31 -73 -76 -98 -52 -28 -197 -69 -217 -62 -15 6 21 117 102 309 l58
138 -20 27 c-28 38 -58 40 -76 5 -8 -15 -49 -127 -92 -248 -43 -121 -82 -225
-87 -232 -11 -14 -61 -8 -141 19 -32 10 -62 16 -68 13 -13 -9 -11 -58 4 -79 8
-11 40 -22 90 -30 43 -8 80 -16 83 -19 3 -2 -6 -47 -20 -98 -44 -174 -41 -296
10 -375 31 -46 105 -69 132 -42 22 22 13 37 -25 40 -49 4 -63 31 -63 125 0
104 59 361 84 368 6 1 45 10 86 19 42 9 99 28 128 41 28 13 52 20 52 15 0 -5
-13 -60 -29 -122 -52 -202 -80 -352 -68 -366 21 -26 51 -9 61 33 25 115 24
112 83 149 32 20 62 36 68 36 8 0 7 -20 -3 -67 -23 -106 -21 -196 3 -223 32
-35 101 -24 176 29 l60 42 19 -24 c47 -60 123 -55 208 12 l50 40 32 -41 c31
-38 35 -40 76 -35 48 5 102 35 187 104 31 25 59 44 61 42 2 -2 -7 -49 -20
-104 -21 -90 -22 -102 -8 -122 22 -34 50 -29 79 15 14 20 49 73 78 116 28 44
57 81 62 83 6 2 11 -22 12 -57 2 -66 25 -125 56 -141 30 -17 93 -4 132 25 50
38 155 181 155 211 0 20 -36 -5 -100 -71 -82 -82 -133 -119 -154 -111 -9 4
-15 32 -18 90 -5 106 -22 137 -75 137 -31 0 -43 -8 -83 -52 l-48 -51 9 44 c16
82 13 96 -22 101 -26 4 -33 0 -42 -20 -13 -27 -202 -158 -244 -168 -35 -9 -45
10 -40 81 6 74 2 85 -30 85 -21 0 -24 4 -19 23 8 33 -18 64 -63 78 -52 15 -89
-5 -149 -84 -108 -141 -204 -227 -253 -227 -16 0 -29 5 -29 13 0 6 10 72 22
145 l23 134 -24 19 c-32 26 -60 24 -126 -11 -55 -29 -56 -29 -49 -7 4 12 22
76 40 141 37 132 48 153 98 191 18 14 87 84 151 156 227 252 236 264 254 360
12 71 6 96 -30 114 -40 21 -57 19 -115 -14z m86 -73 c-1 -73 -73 -180 -242
-353 -61 -64 -113 -114 -115 -112 -7 8 75 174 122 247 141 218 235 306 235
218z m95 -953 c12 -55 10 -64 -25 -109 -40 -51 -72 -73 -115 -77 -35 -4 -35 3
-2 71 20 43 122 158 131 149 3 -2 8 -18 11 -34z"/>
		<path d="M4890 3585 c-218 -50 -381 -211 -425 -420 -30 -143 -11 -305 51 -427
15 -29 59 -85 98 -124 113 -113 243 -164 421 -164 334 0 575 240 575 575 0
259 -136 454 -378 542 -85 32 -244 40 -342 18z m275 -292 c73 -38 126 -109
141 -188 40 -212 -74 -374 -265 -376 -87 -1 -140 14 -193 54 -107 82 -135 272
-61 408 29 54 86 100 144 118 56 17 188 8 234 -16z"/>
		<path d="M970 3025 l0 -565 130 0 130 0 0 565 0 565 -130 0 -130 0 0 -565z"/>
		<path d="M1390 3475 l0 -115 210 0 210 0 0 -450 0 -450 130 0 130 0 0 450 0
450 215 0 215 0 0 115 0 115 -555 0 -555 0 0 -115z"/>
		<path d="M2720 3025 l0 -565 130 0 130 0 1 508 0 507 38 -95 c21 -52 109 -281
196 -508 l158 -413 144 3 145 3 191 500 192 500 3 -503 2 -502 130 0 130 0 0
565 0 565 -232 0 -233 0 -159 -403 c-87 -221 -162 -406 -166 -410 -4 -5 -81
177 -170 402 l-163 411 -234 0 -233 0 0 -565z"/>
		<path d="M2260 3188 c0 -18 -16 -71 -35 -118 -36 -85 -41 -110 -27 -110 11 0
100 125 113 157 21 55 6 103 -33 103 -14 0 -18 -8 -18 -32z"/>
		<path d="M2387 3010 c-39 -39 -40 -42 -34 -94 3 -32 26 -103 56 -174 28 -66
51 -131 51 -144 0 -54 -59 -112 -102 -100 -51 13 -75 103 -42 151 25 35 3 51
-33 25 -61 -45 -65 -101 -12 -174 73 -100 191 -84 251 33 31 62 21 125 -41
249 -54 105 -62 148 -35 186 17 24 61 30 96 11 37 -20 44 6 10 40 -25 26 -38
31 -77 31 -42 0 -52 -5 -88 -40z"/>
		<path d="M5955 2845 l-55 -55 -6 27 c-10 49 -13 53 -38 53 -19 0 -26 -6 -30
-27 -3 -16 -18 -92 -32 -171 l-27 -143 20 -27 c32 -42 50 -40 58 8 12 69 81
194 145 261 49 52 62 61 85 57 39 -8 45 19 11 49 -43 36 -69 30 -131 -32z"/>
		<path d="M6228 2824 c-97 -69 -146 -213 -98 -291 23 -38 86 -73 133 -73 83 0
233 79 284 149 15 20 38 48 51 62 41 46 9 40 -68 -12 -92 -62 -183 -106 -250
-120 -92 -20 -108 11 -32 59 26 17 73 58 106 91 69 70 71 95 6 136 -51 32 -86
32 -132 -1z m102 -48 c0 -13 -121 -126 -135 -126 -3 0 6 23 22 52 35 65 113
116 113 74z"/>
		<path d="M9607 2728 c-72 -78 -130 -191 -125 -245 2 -30 10 -42 37 -60 60 -40
134 -24 216 48 l35 31 43 -45 c38 -41 46 -45 77 -41 58 9 111 38 200 109 118
94 160 136 160 158 0 26 -2 25 -179 -92 -85 -55 -162 -101 -173 -101 -34 0
-47 80 -22 143 8 22 -21 45 -51 40 -24 -5 -25 -4 -15 21 19 52 -27 96 -99 96
-43 0 -49 -4 -104 -62z m133 -39 c0 -17 4 -39 10 -49 8 -15 1 -29 -40 -78 -52
-63 -91 -86 -135 -80 l-26 3 35 71 c34 67 120 164 146 164 5 0 10 -14 10 -31z"/>
		<path d="M7633 2199 c-201 -39 -323 -227 -268 -415 27 -92 81 -155 177 -205
20 -10 95 -39 166 -63 147 -50 183 -67 212 -98 26 -29 26 -87 0 -121 -66 -83
-273 -70 -341 22 l-21 29 -111 -24 c-61 -14 -113 -27 -115 -29 -12 -12 36 -90
84 -135 73 -69 160 -108 272 -122 279 -36 487 110 486 342 0 185 -82 266 -358
356 -158 51 -207 77 -226 125 -12 28 -11 36 6 67 24 44 76 72 134 72 53 0 121
-29 142 -59 l15 -22 94 21 c52 11 104 22 117 25 l22 5 -19 38 c-24 46 -105
123 -159 151 -86 44 -210 60 -309 40z"/>
		<path d="M974 2176 c-3 -8 -4 -163 -2 -343 5 -357 5 -359 71 -489 85 -169 282
-286 478 -286 232 0 423 132 515 357 l29 70 3 353 3 353 -128 -3 -128 -3 -2
-325 c-3 -366 -6 -387 -74 -464 -138 -157 -386 -120 -481 73 -22 45 -23 55
-26 384 l-3 337 -125 0 c-99 0 -126 -3 -130 -14z"/>
		<path d="M2240 1620 l0 -570 130 0 130 0 2 551 3 551 210 -548 210 -549 258
-3 257 -2 0 570 0 571 -127 -3 -128 -3 -2 -539 c-2 -297 -4 -543 -5 -547 -2
-4 -102 239 -222 542 l-220 549 -248 0 -248 0 0 -570z"/>
		<path d="M3610 1620 l0 -570 130 0 130 0 -2 568 -3 567 -127 3 -128 3 0 -571z"/>
		<path d="M4016 2181 c-3 -5 91 -260 208 -567 l214 -559 144 -3 143 -3 214 558
c117 307 216 564 219 571 4 11 -20 13 -119 10 l-124 -3 -167 -415 c-125 -311
-168 -410 -174 -395 -4 11 -78 198 -165 415 l-157 395 -115 3 c-63 1 -118 -1
-121 -7z"/>
		<path d="M5300 1622 l0 -572 410 0 410 0 0 115 0 115 -280 0 -280 0 0 115 0
115 225 0 225 0 0 110 0 110 -225 0 -225 0 0 110 0 110 278 2 277 3 3 113 3
112 -223 0 c-123 0 -307 3 -410 7 l-188 6 0 -571z"/>
		<path d="M6290 1620 l0 -570 115 0 115 0 0 185 0 185 103 1 c56 0 110 2 120 4
21 4 26 -2 143 -209 l91 -161 128 -3 c106 -2 126 0 122 11 -3 8 -53 98 -111
201 -58 102 -106 190 -106 195 0 5 15 18 33 30 156 97 216 316 132 487 -30 60
-110 138 -177 171 -73 37 -135 43 -429 43 l-279 0 0 -570z m613 327 c90 -59
87 -229 -5 -285 -41 -25 -39 -25 -225 -23 l-153 1 0 164 c0 99 4 166 10 168 5
2 85 1 178 -2 138 -4 173 -8 195 -23z"/>
		<path d="M8317 2183 c-4 -3 -7 -260 -7 -570 l0 -563 130 0 130 0 0 570 0 570
-123 0 c-68 0 -127 -3 -130 -7z"/>
		<path d="M9958 2158 c24 -39 178 -299 304 -514 l88 -151 0 -221 0 -222 115 0
115 0 0 223 0 222 33 55 c19 30 105 172 192 315 87 143 167 275 178 293 l19
32 -131 0 -130 0 -49 -82 c-159 -273 -227 -387 -228 -385 -1 1 -57 101 -124
222 -67 121 -127 226 -132 233 -7 8 -48 12 -140 12 l-130 0 20 -32z"/>
		<path d="M8722 2068 l3 -113 30 -2 c17 0 112 -2 213 -2 l182 -1 0 -450 0 -451
128 3 127 3 3 448 2 447 193 1 c105 1 197 2 202 4 6 1 16 3 23 3 9 2 12 31 12
112 l0 110 -560 0 -561 0 3 -112z"/>
	</g>
</svg>
